<svg id="Layer_1" data-name="Layer 1" xmlns="http://www.w3.org/2000/svg" xmlns:xlink="http://www.w3.org/1999/xlink" viewBox="0 0 751.21 294.66"><defs><style>.cls-1{fill:#ff97b5;}.cls-2{fill:url(#linear-gradient);}</style><linearGradient id="linear-gradient" x1="932.73" y1="468.34" x2="981.65" y2="472.84" gradientUnits="userSpaceOnUse"><stop offset="0" stop-color="#ff97b5"/><stop offset="0.84" stop-color="#ff97b5" stop-opacity="0"/></linearGradient></defs><path class="cls-1" d="M263.05,419.54a3.29,3.29,0,0,0-1.45-.77,5.6,5.6,0,0,0-1.43-.18l-.38,0a9.49,9.49,0,0,0-1.74.24,3.43,3.43,0,0,0-1.11.46c-.13.1-.15.15-.15.15.24.22.42.66,0,2.34-.26,1.19-.69,2.7-1.28,4.51s-1.32,3.87-2.14,6.12-1.69,4.61-2.56,7-1.72,4.8-2.55,7.2-1.55,4.63-2.13,6.63-1,3.79-1.33,5.29a6.88,6.88,0,0,0-.12,3.15h0a3.39,3.39,0,0,0,1.47,2.13,3.68,3.68,0,0,0,3.73.14c.3-.18.66-.46.66-.76a14.72,14.72,0,0,1,.9-4.92c.66-2.12,1.52-4.54,2.53-7.18s2.13-5.47,3.33-8.43,2.31-5.82,3.3-8.54,1.8-5.28,2.41-7.57a16.16,16.16,0,0,0,.69-5.48A2.31,2.31,0,0,0,263.05,419.54Z" transform="translate(-231.79 -180.34)"/><path class="cls-1" d="M281.71,422c.5-1.13,1-2.22,1.4-3.26a2,2,0,0,0,.09-.22,1,1,0,0,0,.09-.22l.24.05.24,0,3.49.66a29.32,29.32,0,0,0,6,.55,8.82,8.82,0,0,0,3.52-.7,5.57,5.57,0,0,0,2-1.54,4.63,4.63,0,0,0,.9-1.92,7.86,7.86,0,0,0,.16-2,3.87,3.87,0,0,0-1.1-2.53,7.28,7.28,0,0,0-2.23-1.59,5.43,5.43,0,0,0-2.12-.53c-.47,0-.59.1-.61.14s0,0,0,.13a2.85,2.85,0,0,1-.7,2.5,6.3,6.3,0,0,1-2.59,1.65,17.24,17.24,0,0,1-3.91.89c-.42.05-.85.1-1.29.13h-.25l-.25,0c0-.08.05-.16.08-.23a2.25,2.25,0,0,1,.08-.24c.24-.74.44-1.44.6-2.08a5.72,5.72,0,0,0,.17-2.92,3.12,3.12,0,0,0-1.54-2.07,4.7,4.7,0,0,0-2-.48H282a3.94,3.94,0,0,0-1.78.47c-.37.21-.38.33-.38.33s0,0,.05.06c.21.21.38.66-.09,2.3-.32,1.07-.8,2.43-1.45,4a1.09,1.09,0,0,1-.09.23l0,.07-.07.15-.24,0-.24,0-.72-.13c-1.95-.35-4.1-.76-6.38-1.22L263.45,411c-2.47-.48-4.9-.88-7.23-1.19a62.16,62.16,0,0,0-6.55-.55h-.77a17.12,17.12,0,0,0-4.33.47,19.14,19.14,0,0,0-4.8,2.05,18.32,18.32,0,0,0-3.94,3.22,16.26,16.26,0,0,0-2.79,4.26,14.58,14.58,0,0,0-1.23,5.15,5.89,5.89,0,0,0,.4,2.72,5.47,5.47,0,0,0,1.51,2.07,7,7,0,0,0,2.39,1.29,8.4,8.4,0,0,0,3,.32,7.68,7.68,0,0,0,3.36-1.16,13.3,13.3,0,0,0,2.67-2.14,8.79,8.79,0,0,0,1.46-2,1.3,1.3,0,0,0,.15-.45h0a7.3,7.3,0,0,1-3-.05,5.91,5.91,0,0,1-2.37-1.16,5.38,5.38,0,0,1-1.51-2.05,5.93,5.93,0,0,1-.4-2.75,5.45,5.45,0,0,1,.69-2.44,8.41,8.41,0,0,1,1.65-2.14,10.21,10.21,0,0,1,2.39-1.64,10.46,10.46,0,0,1,2.89-1,19.93,19.93,0,0,1,5.57.1c2.37.3,5,.75,8,1.34s6,1.25,9.16,2c2.26.52,4.5,1,6.69,1.51l.23.05.24.06a1.47,1.47,0,0,0-.1.22l-.09.22-1,2.22q-1.41,3.3-2.94,6.78c-1,2.3-2,4.63-3,6.92s-1.81,4.43-2.52,6.39a47.88,47.88,0,0,0-1.6,5.15,6.23,6.23,0,0,0-.2,3.08h0a3.59,3.59,0,0,0,1.37,2.14,3,3,0,0,0,1.76.54,2.2,2.2,0,0,0,1.35-.44c.44-.35.34-.55.3-.63-.33-.61-.14-1.86.57-3.78s1.64-4.11,2.81-6.72l.09-.18,0-.1.72-1.5a34.93,34.93,0,0,1,2.35-3.6c1-1.31,2-2.57,3-3.73a27.78,27.78,0,0,1,2.89-2.93,4.4,4.4,0,0,1,2.22-1.27c.91-.05,1.43.22,1.55.79a4.05,4.05,0,0,1-.31,2,26.07,26.07,0,0,1-1.35,3c-.59,1.12-1.19,2.36-1.8,3.7s-1.17,2.76-1.68,4.21a21.21,21.21,0,0,0-1.05,4.44,9.2,9.2,0,0,0,0,2.46,7.55,7.55,0,0,0,.67,2.17,4.15,4.15,0,0,0,1.21,1.5,2.62,2.62,0,0,0,1.73.48,4.77,4.77,0,0,0,2.66-1,16.81,16.81,0,0,0,2.81-2.51,33.12,33.12,0,0,0,2.73-3.41c.88-1.24,1.71-2.5,2.47-3.73s1.41-2.4,2-3.47,1-1.93,1.27-2.57a.46.46,0,0,0,0-.5.74.74,0,0,0-.4-.34,1,1,0,0,0-.58,0,.6.6,0,0,0-.4.42,19,19,0,0,1-1.13,2.43c-.51,1-1.12,2-1.78,3.09s-1.38,2.15-2.14,3.25-1.5,2.08-2.21,2.95a19.49,19.49,0,0,1-2,2.13,2.67,2.67,0,0,1-1.55.86c-1.09,0-1.38-.55-1.42-1a5.08,5.08,0,0,1,.42-2.24,33.67,33.67,0,0,1,1.43-3.15c.61-1.2,1.22-2.47,1.83-3.79s1.15-2.67,1.63-4.05a14.58,14.58,0,0,0,.82-3.89,8.05,8.05,0,0,0-.64-4.86,3.1,3.1,0,0,0-3-1.76,6.64,6.64,0,0,0-3.67,1.51,26.11,26.11,0,0,0-3.93,3.62l-1.08,1.2.69-1.46C279.82,426.14,280.79,424,281.71,422Z" transform="translate(-231.79 -180.34)"/><path class="cls-1" d="M320.56,433.83a.46.46,0,0,0,0-.5.74.74,0,0,0-.4-.34,1,1,0,0,0-.58,0,.62.62,0,0,0-.4.42,17.44,17.44,0,0,1-1.12,2.4c-.52,1-1.12,2-1.79,3.06s-1.37,2.15-2.11,3.23-1.47,2-2.18,2.91a21,21,0,0,1-2,2.16,3.07,3.07,0,0,1-1.53.95,1.35,1.35,0,0,1-1.14-.3,1.16,1.16,0,0,1-.25-1,10.89,10.89,0,0,1,1.07-3.11c.61-1.28,1.38-2.74,2.28-4.37s1.76-3.25,2.55-4.91a30.76,30.76,0,0,0,1.85-4.76,6.46,6.46,0,0,0,.16-3.76,3.17,3.17,0,0,0-1.48-2,4.78,4.78,0,0,0-2.12-.53,2.49,2.49,0,0,0-1.22.25l-1,.57a7.85,7.85,0,0,1-1.23.6,5.4,5.4,0,0,1-2,.3A8.5,8.5,0,0,1,305,425a1.63,1.63,0,0,1-.87-.33l-.12-.09,0-.15a11.85,11.85,0,0,0,.3-2.06c.05-.84.08-1.51.08-2a3.25,3.25,0,0,0-.81-2,2.21,2.21,0,0,0-1.73-.83,2.85,2.85,0,0,0-2.48,1.11,4.76,4.76,0,0,0-.84,2.8,4.57,4.57,0,0,0,.87,2.53,5.46,5.46,0,0,0,2.11,1.86l.17.08-.05.18A12,12,0,0,1,301,428c-.3.72-.59,1.46-.88,2.21s-.6,1.49-.89,2.17-.5,1.17-.61,1.5a.62.62,0,0,0,0,.55.82.82,0,0,0,.38.32.84.84,0,0,0,.52,0,.64.64,0,0,0,.39-.33h0c.22-.39.49-1,.82-1.72s.67-1.53,1-2.33.64-1.52.92-2.21.47-1.15.58-1.42l.08-.18.2.05a9.1,9.1,0,0,0,2.84.3,8.94,8.94,0,0,0,2.56-.51l.46-.17-.15.46a30.61,30.61,0,0,1-1.39,3.51c-.63,1.35-1.28,2.83-1.95,4.4s-1.27,3.16-1.82,4.78a20.76,20.76,0,0,0-1.05,4.54,12.53,12.53,0,0,0,0,2.74,6.28,6.28,0,0,0,.64,2.13,3.6,3.6,0,0,0,1.23,1.33,3.1,3.1,0,0,0,1.78.41,4.77,4.77,0,0,0,2.65-1,17.26,17.26,0,0,0,2.82-2.51,37.71,37.71,0,0,0,2.73-3.41c.88-1.24,1.7-2.5,2.46-3.73s1.41-2.4,2-3.47S320.26,434.47,320.56,433.83Z" transform="translate(-231.79 -180.34)"/><path class="cls-1" d="M343,433a.71.71,0,0,0-.65-.09.79.79,0,0,0-.45.48,23.78,23.78,0,0,1-1.54,3.16,38.25,38.25,0,0,1-2.23,3.42,36,36,0,0,1-2.69,3.29,23.84,23.84,0,0,1-2.91,2.74,12.41,12.41,0,0,1-2.94,1.78,4.93,4.93,0,0,1-2.77.37,2,2,0,0,1-1.41-1.06,5.23,5.23,0,0,1-.56-2,12.32,12.32,0,0,1,.06-2.62,19.77,19.77,0,0,1,.56-2.88l0-.14.12,0a17.66,17.66,0,0,0,5.15-2.27,19.05,19.05,0,0,0,3.92-3.34,15.17,15.17,0,0,0,2.49-3.73,8.38,8.38,0,0,0,.87-3.45,3.34,3.34,0,0,0-.91-2.44,3.86,3.86,0,0,0-2.85-.92,11.29,11.29,0,0,0-3.86.7,13.44,13.44,0,0,0-3.71,2.18,18.53,18.53,0,0,0-3.42,3.8,28.14,28.14,0,0,0-2.95,5.69,28.58,28.58,0,0,0-1.21,4,13.89,13.89,0,0,0-.32,4.17,8.51,8.51,0,0,0,1.1,3.64,5.89,5.89,0,0,0,3.08,2.47,7.09,7.09,0,0,0,3.92.49A11.83,11.83,0,0,0,330.9,449a18.88,18.88,0,0,0,3.76-2.81,37.05,37.05,0,0,0,3.44-3.8A38.7,38.7,0,0,0,341,438.1c.86-1.44,1.61-2.84,2.23-4.16A.65.65,0,0,0,343,433Zm-16.81,4.33a11.73,11.73,0,0,1,.46-1.13,38.75,38.75,0,0,1,4.58-8.13c1.58-2,2.89-3,4-3,.57,0,1.23.35,1.21,1.73a8,8,0,0,1-1.12,3.51,16.46,16.46,0,0,1-3.23,4.05,15.43,15.43,0,0,1-5.55,3.23l-.46.16Z" transform="translate(-231.79 -180.34)"/><path class="cls-1" d="M374.52,433.83a.47.47,0,0,0,0-.5.74.74,0,0,0-.4-.34,1,1,0,0,0-.58,0,.62.62,0,0,0-.4.42,18,18,0,0,1-1.12,2.4c-.52,1-1.11,2-1.75,3.06s-1.36,2.15-2.12,3.23-1.5,2-2.2,2.91a21.09,21.09,0,0,1-2,2.16,3,3,0,0,1-1.52.95,1.38,1.38,0,0,1-1.15-.3,1.16,1.16,0,0,1-.25-1,11,11,0,0,1,1.07-3.11c.62-1.28,1.38-2.75,2.29-4.37s1.75-3.25,2.54-4.91a30.76,30.76,0,0,0,1.85-4.76,6.56,6.56,0,0,0,.17-3.76,3.07,3.07,0,0,0-1.57-2.07,4.61,4.61,0,0,0-2.19-.48,3.64,3.64,0,0,0-1.75.47c-.37.21-.38.33-.38.33l.05.06a1.59,1.59,0,0,1,.24,1.47,13.07,13.07,0,0,1-.67,2.25c-.34.87-.76,1.87-1.26,2.95s-1,2.25-1.52,3.46c-.49.93-1,1.94-1.53,3s-1.1,2.2-1.67,3.28-1.18,2.15-1.79,3.14a22.21,22.21,0,0,1-1.79,2.57A7,7,0,0,1,351.4,448a2,2,0,0,1-1.86.18,2.61,2.61,0,0,1-1.51-1.81,9.49,9.49,0,0,1-.35-3,17,17,0,0,1,.54-3.59,20.59,20.59,0,0,1,1.21-3.5c.77-1.7,1.56-3.26,2.33-4.65a30.76,30.76,0,0,1,2.27-3.51,12.46,12.46,0,0,1,2.07-2.2,2.75,2.75,0,0,1,1.88-.74,1.08,1.08,0,0,1,.57.15,1.37,1.37,0,0,1,.52.65l.07.18-.15.11a2.07,2.07,0,0,0-.58.6,1.27,1.27,0,0,0-.21.7,1.23,1.23,0,0,0,.44,1,1.57,1.57,0,0,0,1.05.39,1.23,1.23,0,0,0,1-.42,1.85,1.85,0,0,0,.5-1.51,3.38,3.38,0,0,0-.41-1.73,3.66,3.66,0,0,0-1-1.12,4.26,4.26,0,0,0-1.32-.6,9.42,9.42,0,0,0-1.37-.24h-.29a11,11,0,0,0-3.56.61,11.91,11.91,0,0,0-3.7,2.14,18.84,18.84,0,0,0-3.42,3.88,29.61,29.61,0,0,0-2.95,5.75,28.58,28.58,0,0,0-1.21,4,13.76,13.76,0,0,0-.33,4.14,8.79,8.79,0,0,0,1.11,3.64,5.9,5.9,0,0,0,3.07,2.5,6.69,6.69,0,0,0,3.25.6,6.8,6.8,0,0,0,2.79-1,9.83,9.83,0,0,0,2.47-2.19,29.26,29.26,0,0,0,2.2-3.1l.53-.87-.1,1a7.43,7.43,0,0,0,.75,4.51,3,3,0,0,0,2.95,1.6,4.77,4.77,0,0,0,2.65-1,16.85,16.85,0,0,0,2.82-2.51,36,36,0,0,0,2.73-3.41c.88-1.24,1.7-2.5,2.46-3.73s1.42-2.4,2-3.47S374.22,434.47,374.52,433.83Z" transform="translate(-231.79 -180.34)"/><path class="cls-1" d="M405.71,433.83a.46.46,0,0,0,0-.5.77.77,0,0,0-.4-.34,1,1,0,0,0-.58,0,.6.6,0,0,0-.4.42,18,18,0,0,1-1.12,2.4c-.53,1-1.13,2-1.79,3.06s-1.37,2.15-2.12,3.23-1.47,2-2.17,2.91a23.91,23.91,0,0,1-1.93,2.16,2.9,2.9,0,0,1-1.56.95.94.94,0,0,1-.78-.22,1.56,1.56,0,0,1-.28-1.31,15.29,15.29,0,0,1,1.07-3.8c.61-1.57,1.41-3.42,2.39-5.49s2-4.27,3.11-6.52,2.17-4.52,3.25-6.83,2-4.45,2.79-6.44a45.12,45.12,0,0,0,1.8-5.31,6.66,6.66,0,0,0,.22-3.45,3.11,3.11,0,0,0-1.56-2.07,4.77,4.77,0,0,0-2.2-.48,3.88,3.88,0,0,0-1.75.47c-.36.21-.38.33-.38.33s0,0,.05.06c.28.28.27.85,0,1.87a36.56,36.56,0,0,1-1.17,3.52c-.53,1.42-1.19,3.05-1.94,4.85S396.73,421,395.9,423s-1.67,3.94-2.53,5.95-1.63,3.93-2.32,5.73c-.72,1.42-1.48,3-2.32,4.67a48,48,0,0,1-2.59,4.67,18.78,18.78,0,0,1-2.64,3.39,2.41,2.41,0,0,1-2.7.8,2.63,2.63,0,0,1-1.53-1.81,9.52,9.52,0,0,1-.33-3,16.33,16.33,0,0,1,.53-3.59,21.49,21.49,0,0,1,1.2-3.5c.78-1.7,1.57-3.26,2.35-4.65a29.5,29.5,0,0,1,2.26-3.51,12.46,12.46,0,0,1,2.07-2.2,2.75,2.75,0,0,1,1.88-.74h0a1.15,1.15,0,0,1,1.08.8l.08.18-.16.11a1.92,1.92,0,0,0-.57.6,1.21,1.21,0,0,0-.22.7,1.18,1.18,0,0,0,.45,1,1.57,1.57,0,0,0,1,.39,1.24,1.24,0,0,0,1-.46,2,2,0,0,0,.45-1.47,3.28,3.28,0,0,0-.41-1.73,3.57,3.57,0,0,0-1-1.12,4.11,4.11,0,0,0-1.31-.6,9.19,9.19,0,0,0-1.37-.24H388a11,11,0,0,0-3.56.61,11.91,11.91,0,0,0-3.7,2.14,18.84,18.84,0,0,0-3.42,3.88,29.61,29.61,0,0,0-2.95,5.75,28.58,28.58,0,0,0-1.21,4,13.76,13.76,0,0,0-.33,4.14,8.79,8.79,0,0,0,1.11,3.64,5.85,5.85,0,0,0,3.08,2.5,6.43,6.43,0,0,0,3.21.6,6.61,6.61,0,0,0,2.79-1,10.79,10.79,0,0,0,2.45-2.14,23.07,23.07,0,0,0,2.19-3l.52-.83-.08,1a7.66,7.66,0,0,0,.77,4.44,3,3,0,0,0,2.92,1.57,4.77,4.77,0,0,0,2.66-1,17.26,17.26,0,0,0,2.82-2.51A37.66,37.66,0,0,0,400,443.6c.88-1.24,1.71-2.5,2.46-3.73s1.42-2.4,2-3.47S405.41,434.47,405.71,433.83Z" transform="translate(-231.79 -180.34)"/><path class="cls-1" d="M426.23,433.36a.74.74,0,0,0-.62-.13.73.73,0,0,0-.38.41,33.39,33.39,0,0,1-2.4,3.91,51.43,51.43,0,0,1-3.3,4.18l-.64.74.24-1a11.48,11.48,0,0,0,.3-3.26,15,15,0,0,0-.74-3.76,23,23,0,0,0-1.95-4.27,30.15,30.15,0,0,0-3.45-4.72l-.1-.13.24-.47a11.76,11.76,0,0,0,1.15-2.22,4.71,4.71,0,0,0,.38-2,2,2,0,0,0-.63-1.39,2.63,2.63,0,0,0-1.86-.55,3.85,3.85,0,0,0-2,.49,4,4,0,0,0-1.23,1.2,5.09,5.09,0,0,0-.63,1.43,4.65,4.65,0,0,0-.19,1.19,7.15,7.15,0,0,0,.32,2.14,7.27,7.27,0,0,0,.91,1.88l.08.11-.06.13c-.26.51-.5,1-.72,1.46s-.47.92-.73,1.37l-.77,1.4c-.25.49-.53,1.06-.83,1.69-.17.3-.1.44-.08.49a.63.63,0,0,0,.35.33,1.18,1.18,0,0,0,.6.06.72.72,0,0,0,.5-.35c.35-.7.78-1.5,1.24-2.32s.88-1.6,1.24-2.3l.22-.41.2.42a29.82,29.82,0,0,1,2.35,6.53,19.29,19.29,0,0,1,.48,5.1,11,11,0,0,1-.83,3.77,9.31,9.31,0,0,1-1.56,2.55,6.17,6.17,0,0,1-1.76,1.44,3.51,3.51,0,0,1-1.39.44,2.94,2.94,0,0,1-2.09-.88,3.55,3.55,0,0,1-.91-1.92,5.87,5.87,0,0,1,.11-2.31,4.86,4.86,0,0,1,1.05-2.09l.27-.32.13.4a1.31,1.31,0,0,0,.52.68,1.39,1.39,0,0,0,.81.26,1.47,1.47,0,0,0,1-.43,1.39,1.39,0,0,0,.45-1,1.16,1.16,0,0,0-.44-.92,1.77,1.77,0,0,0-1-.45l-.26,0a2.82,2.82,0,0,0-1.13.28,6.59,6.59,0,0,0-1.92,1.5,4.31,4.31,0,0,0-1,2.25,7.12,7.12,0,0,0,.11,3,5.17,5.17,0,0,0,1.51,2.57,4.56,4.56,0,0,0,3.25,1.07,6.77,6.77,0,0,0,1.82-.32,13.69,13.69,0,0,0,2.26-.91l.1-.1h.11a15.37,15.37,0,0,0,3.59-2.16,28.73,28.73,0,0,0,3.11-3c1.39-1.58,2.68-3.18,3.84-4.75a33.86,33.86,0,0,0,3.06-5.06.89.89,0,0,0,.06-.56A.66.66,0,0,0,426.23,433.36Z" transform="translate(-231.79 -180.34)"/><path class="cls-1" d="M481.18,454c.74-2.86,1.68-5.88,2.79-9s2.3-6.22,3.55-9.34l.06-.15h.27a32.51,32.51,0,0,0,5.67.83,6.17,6.17,0,0,0,3.07-.54l.48-1.07.58-1.27a1.5,1.5,0,0,0-.36-.15.71.71,0,0,0-.64.13,1.34,1.34,0,0,0-.46.57v.11l-.07.07a.45.45,0,0,1-.21.12,5.61,5.61,0,0,1-.75.24,5.75,5.75,0,0,1-1.89,0c-.63,0-1.34-.12-2.13-.25l-2.67-.47-.27-.05.1-.27c1.07-2.74,2.09-5.38,3-7.83s1.73-4.81,2.36-6.93a26.49,26.49,0,0,0,1.18-6.12,6.16,6.16,0,0,0-.77-3.61,3.67,3.67,0,0,0-3.3-1.55,11,11,0,0,0-5.76,1.74,15.78,15.78,0,0,0-2.43,1.85,31.32,31.32,0,0,0-2.45,2.59,47.36,47.36,0,0,0-4.89,7q-2.36,4-4.69,8l-.09.16-.18-.05c-1.32-.4-2.57-.74-3.71-1s-2.33-.53-3.55-.83l-.18,0v-.35a5.61,5.61,0,0,0-2.13-3.86,8.86,8.86,0,0,0-5.89-1.5,15.09,15.09,0,0,0-10.94,5.13,17.44,17.44,0,0,0-3,4.84,18,18,0,0,0-1.35,5.54,14.93,14.93,0,0,0,.36,4.88,11,11,0,0,0,1.87,4,10,10,0,0,0,8.48,3.95h.1c4.57,0,9-2.45,13.09-7.18a57.19,57.19,0,0,0,4-5.34c1.26-1.89,2.5-3.9,3.68-6l.1-.16.17.06,4.5,1.35c1.5.46,3,.89,4.55,1.3l.25.07-.1.24c-1.28,3.18-2.52,6.41-3.69,9.58s-2.15,6.26-3,9.23a37.16,37.16,0,0,0-1.33,8.85,11.91,11.91,0,0,0,4.77,10.17,11.92,11.92,0,0,0,10.75,1.67.93.93,0,0,0,.56-.39.55.55,0,0,0,.09-.45.6.6,0,0,0-.31-.36,1.3,1.3,0,0,0-.75-.11,5.13,5.13,0,0,1-3.56-.53,6.33,6.33,0,0,1-2.27-2.47,11.46,11.46,0,0,1-1.19-3.64,27.37,27.37,0,0,1-.37-4.16,30,30,0,0,1,.22-4.08A31.11,31.11,0,0,1,481.18,454ZM469.4,430.78c-1.14,2-2.4,3.94-3.72,5.89A51,51,0,0,1,461.5,442a23.83,23.83,0,0,1-4.46,4,8.28,8.28,0,0,1-4.6,1.53,4.72,4.72,0,0,1-3.44-1.2,6.76,6.76,0,0,1-1.73-2.9,13.31,13.31,0,0,1-.53-3.66,30.81,30.81,0,0,1,.13-3.57,21.88,21.88,0,0,1,1-4.29,16.71,16.71,0,0,1,2-4.21,11.18,11.18,0,0,1,3.2-3.19,7.56,7.56,0,0,1,4.43-1.2,3.15,3.15,0,0,1,2.43,1.11,5.13,5.13,0,0,1,1.08,2l.07.33-.33,0a7.21,7.21,0,0,0-2.84.1,7,7,0,0,0-2.51,1.31,4.12,4.12,0,0,0-1.34,1.91,2.15,2.15,0,0,0,.44,2.37,3.67,3.67,0,0,0,1.32.67,5.06,5.06,0,0,0,2.83-.28,6,6,0,0,0,3.26-2.46,6.1,6.1,0,0,0,.64-1.38l.07-.2.21,0,3.16.77c1,.27,2.16.56,3.29.89l.29.08Zm7.42-.06c-1.42-.43-2.91-.86-4.41-1.27l-.28-.08.14-.26c.67-1.22,1.44-2.56,2.28-4s1.75-2.86,2.67-4.28,1.86-2.78,2.81-4.1,1.86-2.47,2.7-3.43a16.77,16.77,0,0,1,2.4-2.27,2.43,2.43,0,0,1,2.07-.62,1,1,0,0,1,.75.91,5.74,5.74,0,0,1-.09,1.6c-.11.61-.28,1.34-.5,2.15s-.46,1.67-.72,2.55c-.56,2-1.3,4.21-2.2,6.61s-1.88,4.93-2.92,7.59l-.08.19-.2-.05C479.77,431.6,478.29,431.17,476.82,430.72Z" transform="translate(-231.79 -180.34)"/><path class="cls-1" d="M526.49,433.83a.46.46,0,0,0,0-.5.74.74,0,0,0-.4-.34,1,1,0,0,0-.58,0,.62.62,0,0,0-.4.42,18.68,18.68,0,0,1-1.12,2.43c-.52,1-1.12,2-1.79,3.09s-1.38,2.15-2.14,3.25-1.5,2.08-2.2,2.95a19.47,19.47,0,0,1-2,2.13,2.64,2.64,0,0,1-1.55.86c-1.09,0-1.38-.55-1.43-1a5.27,5.27,0,0,1,.43-2.24,33.67,33.67,0,0,1,1.43-3.15c.6-1.19,1.22-2.46,1.83-3.79s1.15-2.67,1.63-4.05a15,15,0,0,0,.82-3.89v0a7.93,7.93,0,0,0-.64-4.84,3.1,3.1,0,0,0-3-1.76,4.48,4.48,0,0,0-2,.48,12.07,12.07,0,0,0-2.13,1.3,19.67,19.67,0,0,0-2.17,1.92c-.71.73-1.43,1.51-2.12,2.31l-.63.72.22-.93a10.62,10.62,0,0,0,.27-1.76,4.31,4.31,0,0,0-.15-1.5,3.1,3.1,0,0,0-1.54-2.06,4.7,4.7,0,0,0-2-.48H503a3.77,3.77,0,0,0-1.78.47c-.36.21-.37.33-.37.33l.05.06c.38.38.39,1.11.07,2.23a31.32,31.32,0,0,1-1.4,3.75c-.43,1-.9,2.05-1.4,3.16l-.12.26-.15.34c-.14.32-.29.65-.44,1l-.15.35c-.07.16-.15.32-.22.49s-.11.25-.16.37c-.57,1.29-1.09,2.57-1.57,3.82a34.5,34.5,0,0,0-1.44,4.59,6.39,6.39,0,0,0-.06,3.36,3.68,3.68,0,0,0,1.37,2.15,3.05,3.05,0,0,0,1.76.54,2.23,2.23,0,0,0,1.36-.44c.43-.35.33-.55.3-.63a3.26,3.26,0,0,1,0-2.38A23.06,23.06,0,0,1,500,443.8c.6-1.25,1.28-2.61,2-4s1.49-2.86,2.19-4.28c.71-1.06,1.52-2.15,2.41-3.28s1.78-2.18,2.65-3.12a25.61,25.61,0,0,1,2.43-2.34,3.85,3.85,0,0,1,1.86-1c.91-.05,1.43.22,1.55.79a4.05,4.05,0,0,1-.31,2,23.59,23.59,0,0,1-1.35,3c-.59,1.12-1.19,2.36-1.8,3.7s-1.17,2.76-1.68,4.21a21.86,21.86,0,0,0-1.05,4.44,8.8,8.8,0,0,0,0,2.46,7.56,7.56,0,0,0,.68,2.17,4.13,4.13,0,0,0,1.2,1.5,2.65,2.65,0,0,0,1.74.48,4.77,4.77,0,0,0,2.65-1,17.26,17.26,0,0,0,2.82-2.51,37.71,37.71,0,0,0,2.73-3.41c.87-1.24,1.7-2.5,2.46-3.73s1.41-2.4,2-3.47S526.2,434.46,526.49,433.83Z" transform="translate(-231.79 -180.34)"/><path class="cls-1" d="M557.66,406.68a4.73,4.73,0,0,0-2.19-.48,3.88,3.88,0,0,0-1.75.47c-.37.21-.38.33-.38.33s0,0,0,.06c.27.28.27.85,0,1.87s-.63,2.09-1.17,3.52-1.19,3-2,4.85-1.55,3.69-2.38,5.65-1.68,3.94-2.53,5.95-1.63,3.93-2.33,5.73c-.71,1.42-1.48,3-2.31,4.67a50.21,50.21,0,0,1-2.59,4.67,18.79,18.79,0,0,1-2.65,3.39,2.4,2.4,0,0,1-2.7.8,2.64,2.64,0,0,1-1.52-1.81,9.5,9.5,0,0,1-.34-3,17,17,0,0,1,.54-3.59,21.49,21.49,0,0,1,1.2-3.5c.78-1.7,1.57-3.26,2.34-4.65a31.68,31.68,0,0,1,2.27-3.51,12.45,12.45,0,0,1,2.06-2.2,2.81,2.81,0,0,1,1.89-.74,1.11,1.11,0,0,1,.57.15,1.37,1.37,0,0,1,.52.65l.07.18-.15.11a2.07,2.07,0,0,0-.58.6,1.27,1.27,0,0,0-.21.7,1.2,1.2,0,0,0,.44,1,1.57,1.57,0,0,0,1,.39,1.24,1.24,0,0,0,1-.46,2,2,0,0,0,.45-1.47,3.38,3.38,0,0,0-.41-1.73,3.57,3.57,0,0,0-1-1.12,4.21,4.21,0,0,0-1.31-.6,9.19,9.19,0,0,0-1.37-.24H540a11,11,0,0,0-3.56.61,11.8,11.8,0,0,0-3.7,2.14,18.84,18.84,0,0,0-3.42,3.88,29.61,29.61,0,0,0-3,5.75,27.28,27.28,0,0,0-1.21,4,13.47,13.47,0,0,0-.33,4.14,8.79,8.79,0,0,0,1.11,3.64,5.86,5.86,0,0,0,3.07,2.5,6.46,6.46,0,0,0,3.22.6,6.65,6.65,0,0,0,2.79-1,11,11,0,0,0,2.44-2.14,23.11,23.11,0,0,0,2.2-3l.51-.84-.07,1a7.58,7.58,0,0,0,.77,4.44,3,3,0,0,0,2.92,1.57,4.77,4.77,0,0,0,2.66-1,17.21,17.21,0,0,0,2.81-2.51A36,36,0,0,0,552,443.6c.88-1.24,1.71-2.5,2.46-3.73s1.42-2.39,2-3.47,1-1.93,1.27-2.57a.46.46,0,0,0,0-.5.77.77,0,0,0-.4-.34,1,1,0,0,0-.58,0,.6.6,0,0,0-.4.42,19,19,0,0,1-1.13,2.4c-.52,1-1.12,2-1.78,3.06s-1.38,2.16-2.12,3.23-1.47,2-2.17,2.91a25.29,25.29,0,0,1-1.94,2.16,2.92,2.92,0,0,1-1.55.95.92.92,0,0,1-.78-.22,1.59,1.59,0,0,1-.29-1.31,16.22,16.22,0,0,1,1.07-3.8c.61-1.56,1.42-3.41,2.4-5.49s2-4.27,3.11-6.52,2.16-4.52,3.24-6.83,2-4.45,2.8-6.44A44.89,44.89,0,0,0,559,412.2a6.69,6.69,0,0,0,.23-3.45A3.09,3.09,0,0,0,557.66,406.68Z" transform="translate(-231.79 -180.34)"/><path class="cls-1" d="M653.4,415.21a1,1,0,0,0,1.17-.42,3.67,3.67,0,0,0,.74-1.79,3.63,3.63,0,0,0-.32-2.09,2.24,2.24,0,0,0-1.77-1.22,10.19,10.19,0,0,0-2-.2,8.76,8.76,0,0,0-3.71.79,15.39,15.39,0,0,0-4.84,3.6,31.54,31.54,0,0,0-4.11,5.72,76.52,76.52,0,0,0-3.45,6.9c-1.05,2.39-2,4.77-2.94,7.1s-1.77,4.47-2.58,6.35l-.17.38-.24-.33c-.62-.85-1.28-1.67-2-2.46s-1.35-1.58-2-2.41c-1.06-1.28-2.14-2.59-3.19-3.9s-2-2.64-2.87-3.92l-.07-.1,0-.11c.62-1.83,1.14-3.55,1.55-5.11s.72-2.93.94-4.1a21.3,21.3,0,0,0,.38-5.7,6.48,6.48,0,0,0-1.28-3.64,2.93,2.93,0,0,0-2.37-1.24h-.13a1.58,1.58,0,0,0-.53-.1,6.69,6.69,0,0,0-5.49,2.58,12.23,12.23,0,0,0-2.56,4.67,15,15,0,0,0-.32,6.27,26,26,0,0,0,4.12,10.21l1.46,2.09-.05.11a67.71,67.71,0,0,1-3.29,6.78,48.74,48.74,0,0,1-3.34,5.32,51.72,51.72,0,0,1-4.35,5.28,31.09,31.09,0,0,1-4.95,4.27,14,14,0,0,1-5.23,2.31,5.85,5.85,0,0,1-4.07-.5,7.31,7.31,0,0,1-2.64-2.63,10.34,10.34,0,0,1-1.31-3.74,12.89,12.89,0,0,1,0-3.87,15.26,15.26,0,0,1,1.16-3.85,14,14,0,0,1,6.26-6.73,14.56,14.56,0,0,1,5.38-1.57.85.85,0,0,0,.8-.85.9.9,0,0,0-.2-.57,1.12,1.12,0,0,0-.57-.34,21.25,21.25,0,0,0-12.29.93,15.6,15.6,0,0,0-7.38,6.33,16.35,16.35,0,0,0-2.3,8.68,14.37,14.37,0,0,0,.77,4.33,12.38,12.38,0,0,0,2,3.62,10.81,10.81,0,0,0,2.71,2.37,11.52,11.52,0,0,0,3.43,1.42,14.5,14.5,0,0,0,3.06.32,19.7,19.7,0,0,0,6.3-1.15,20.37,20.37,0,0,0,5.27-2.65,31.91,31.91,0,0,0,5.07-4.43,55.87,55.87,0,0,0,8-11.47c.51-1,1-1.91,1.52-2.88s.94-1.9,1.35-2.86l.16-.37.25.32c1.2,1.53,2.43,3,3.65,4.48s2.54,3.07,3.67,4.49a27.3,27.3,0,0,1,2.85,4.3l0,.09,0,.09c-.33.94-.65,1.85-1,2.7s-.61,1.61-.91,2.36c-1.85,4.45-2.36,7.67-1.5,9.56a2.21,2.21,0,0,0,.69.93,3.14,3.14,0,0,0,.73.37h.1l.05,0a2.41,2.41,0,0,0,.71.3,4.23,4.23,0,0,0,1.39.21,6.1,6.1,0,0,0,3.74-1.39,11.33,11.33,0,0,0,3.2-4.66,16.38,16.38,0,0,0,.93-6.88,15.9,15.9,0,0,0-1-4.3,24.91,24.91,0,0,0-2.42-4.67l-.62-.87,0-.12c.78-1.83,1.59-3.89,2.42-6.14s1.73-4.51,2.66-6.73a66.67,66.67,0,0,1,3.12-6.4,22.64,22.64,0,0,1,3.82-5.09,11.24,11.24,0,0,1,4.76-2.82A9.62,9.62,0,0,1,653.4,415.21Z" transform="translate(-231.79 -180.34)"/><path class="cls-1" d="M670.36,434a1.1,1.1,0,0,0,.1-.62.92.92,0,0,0-.43-.6,1,1,0,0,0-.87-.11,1,1,0,0,0-.58.61,23.29,23.29,0,0,1-1.52,3.13,36.05,36.05,0,0,1-2.23,3.41,38.16,38.16,0,0,1-2.66,3.26,24.24,24.24,0,0,1-2.89,2.72,12.08,12.08,0,0,1-2.88,1.74,4.66,4.66,0,0,1-2.64.36,1.76,1.76,0,0,1-1.25-.94,5.31,5.31,0,0,1-.53-1.94,12.52,12.52,0,0,1,.06-2.57,19.64,19.64,0,0,1,.56-2.85,18.19,18.19,0,0,0,5.21-2.3,19.26,19.26,0,0,0,4-3.38,15.47,15.47,0,0,0,2.53-3.79,8.62,8.62,0,0,0,.89-3.55,3.59,3.59,0,0,0-1-2.6,4.09,4.09,0,0,0-3-1,11.24,11.24,0,0,0-3.94.72,13.27,13.27,0,0,0-3.77,2.22,18.54,18.54,0,0,0-3.48,3.85,28.82,28.82,0,0,0-3,5.73,28.33,28.33,0,0,0-1.22,4,14,14,0,0,0-.33,4.24,8.71,8.71,0,0,0,1.14,3.73,6.12,6.12,0,0,0,3.19,2.58,7.27,7.27,0,0,0,4,.5,12.14,12.14,0,0,0,4-1.44,19.34,19.34,0,0,0,3.8-2.85,36.4,36.4,0,0,0,3.47-3.82,40.59,40.59,0,0,0,2.94-4.27c.46-.77.89-1.53,1.28-2.26S670.06,434.67,670.36,434Zm-16.6,2.27a39.45,39.45,0,0,1,4.55-8.08q2.28-2.94,3.78-2.88c.67,0,1,.54,1,1.5a7.87,7.87,0,0,1-1.08,3.4,16.27,16.27,0,0,1-3.2,4,15,15,0,0,1-5.46,3.18C653.43,437.09,653.58,436.72,653.76,436.31Z" transform="translate(-231.79 -180.34)"/><path class="cls-1" d="M693.12,434a1,1,0,0,0,.09-.62.92.92,0,0,0-.43-.6.93.93,0,0,0-.86-.11,1,1,0,0,0-.58.61,22.28,22.28,0,0,1-1.53,3.13,38.59,38.59,0,0,1-4.88,6.67,25,25,0,0,1-2.89,2.72,11.93,11.93,0,0,1-2.89,1.74,4.62,4.62,0,0,1-2.63.36,1.74,1.74,0,0,1-1.25-.94,5.12,5.12,0,0,1-.53-1.94,12.52,12.52,0,0,1,.06-2.57,19.6,19.6,0,0,1,.55-2.85,18.13,18.13,0,0,0,5.22-2.3,19.53,19.53,0,0,0,4-3.38,15.76,15.76,0,0,0,2.53-3.79,8.6,8.6,0,0,0,.88-3.55,3.55,3.55,0,0,0-1-2.6,4.05,4.05,0,0,0-3-1,11.24,11.24,0,0,0-3.94.72,13.18,13.18,0,0,0-3.78,2.22,18.51,18.51,0,0,0-3.47,3.85,24.47,24.47,0,0,0-2.07,3.65c-.31.66-.61,1.35-.89,2.08-.07.17-.14.34-.2.5a29.63,29.63,0,0,0-1,3.51,14,14,0,0,0-.33,4.24,8.71,8.71,0,0,0,1.14,3.73,6.12,6.12,0,0,0,3.19,2.58,7.27,7.27,0,0,0,4,.5,12,12,0,0,0,4-1.44,19.11,19.11,0,0,0,3.81-2.85,35.26,35.26,0,0,0,3.46-3.82,39.24,39.24,0,0,0,3-4.27c.46-.77.88-1.52,1.28-2.26S692.82,434.67,693.12,434Zm-16.6,2.27a39.93,39.93,0,0,1,4.55-8.08q2.28-2.94,3.78-2.88c.66,0,1,.54,1,1.5a7.77,7.77,0,0,1-1.09,3.4,16,16,0,0,1-3.19,4,15,15,0,0,1-5.46,3.18A10.55,10.55,0,0,1,676.52,436.31Z" transform="translate(-231.79 -180.34)"/><path class="cls-1" d="M723.61,435.38v0c.28-.56.51-1,.69-1.42a.71.71,0,0,0,.09-.59l-.06-.13a1,1,0,0,0-.53-.44,1.26,1.26,0,0,0-.72,0,.8.8,0,0,0-.55.55,18.67,18.67,0,0,1-1.12,2.38c-.51,1-1.11,2-1.77,3.05s-1.37,2.14-2.11,3.21-1.46,2-2.17,2.91a23.2,23.2,0,0,1-1.91,2.13,2.83,2.83,0,0,1-1.42.89c-.62.07-.89-.36-.8-1.28a15.15,15.15,0,0,1,1-3.73q.91-2.36,2.39-5.49t3.11-6.5q1.63-3.37,3.25-6.84t2.8-6.45a44.89,44.89,0,0,0,1.8-5.35,6.79,6.79,0,0,0,.22-3.57,3.29,3.29,0,0,0-1.69-2.21,4.8,4.8,0,0,0-2.3-.5,4,4,0,0,0-1.86.5c-.5.29-.62.55-.36.77s.15.73-.08,1.64-.63,2.06-1.17,3.49-1.18,3-1.94,4.84-1.56,3.69-2.39,5.65-1.67,3.94-2.53,5.95-1.62,3.92-2.33,5.73c-.7,1.41-1.47,2.95-2.3,4.65a47.59,47.59,0,0,1-2.58,4.65,18.9,18.9,0,0,1-2.61,3.36,2.19,2.19,0,0,1-2.44.74,2.38,2.38,0,0,1-1.39-1.66,9,9,0,0,1-.33-3,16.47,16.47,0,0,1,.52-3.55,22,22,0,0,1,1.2-3.46c.77-1.69,1.55-3.24,2.33-4.62a30.45,30.45,0,0,1,2.25-3.49,12.34,12.34,0,0,1,2-2.16,2.54,2.54,0,0,1,1.72-.69.92.92,0,0,1,.89.66,2.54,2.54,0,0,0-.64.67,1.55,1.55,0,0,0-.25.83,1.44,1.44,0,0,0,.53,1.16,1.79,1.79,0,0,0,1.19.45,1.47,1.47,0,0,0,1.22-.56A2.16,2.16,0,0,0,711,427a3.55,3.55,0,0,0-.44-1.85,3.77,3.77,0,0,0-1.08-1.19,4.5,4.5,0,0,0-1.39-.64,10,10,0,0,0-1.41-.25,11.4,11.4,0,0,0-4,.61,12.08,12.08,0,0,0-3.77,2.19,19.08,19.08,0,0,0-3.47,3.93,26.19,26.19,0,0,0-2.07,3.7c-.31.66-.61,1.36-.9,2.09l-.21.53a28.61,28.61,0,0,0-1,3.48,13.89,13.89,0,0,0-.33,4.21,9,9,0,0,0,1.14,3.74,6.06,6.06,0,0,0,3.19,2.6,6.52,6.52,0,0,0,3.33.61,6.74,6.74,0,0,0,2.88-1,11.07,11.07,0,0,0,2.5-2.2,23.18,23.18,0,0,0,2.22-3.06,7.75,7.75,0,0,0,.81,4.56,3.14,3.14,0,0,0,3.13,1.69,5,5,0,0,0,2.78-1,17.33,17.33,0,0,0,2.85-2.55,34.66,34.66,0,0,0,2.75-3.43q1.33-1.89,2.47-3.75t2-3.48C723.24,436.1,723.44,435.72,723.61,435.38Z" transform="translate(-231.79 -180.34)"/><path class="cls-1" d="M738.37,435.7q.54-1.08.87-1.77a.72.72,0,0,0,.11-.52.56.56,0,0,0-.08-.2,1,1,0,0,0-.53-.44,1.26,1.26,0,0,0-.72,0,.82.82,0,0,0-.55.55,19.85,19.85,0,0,1-1.11,2.38c-.52,1-1.11,2-1.78,3.05s-1.37,2.14-2.11,3.21-1.46,2-2.16,2.91a24.69,24.69,0,0,1-1.92,2.13,2.89,2.89,0,0,1-1.41.89c-.64.07-.9-.36-.81-1.28a14.82,14.82,0,0,1,1.06-3.73c.6-1.57,1.4-3.4,2.38-5.49s2-4.25,3.11-6.5,2.17-4.53,3.25-6.84,2-4.46,2.8-6.45a45.1,45.1,0,0,0,1.81-5.35,6.89,6.89,0,0,0,.22-3.57,3.35,3.35,0,0,0-1.69-2.21,4.86,4.86,0,0,0-2.31-.5,4,4,0,0,0-1.86.5c-.5.29-.62.55-.36.77s.13,1.16-.39,2.71-1.25,3.48-2.19,5.79-2,4.84-3.19,7.59-2.32,5.44-3.39,8.08c-.27.66-.53,1.31-.78,1.94s-.54,1.4-.79,2.07c-.44,1.14-.84,2.23-1.21,3.28a27.18,27.18,0,0,0-1.38,5.14,11.91,11.91,0,0,0,0,2.8,6.37,6.37,0,0,0,.66,2.22,3.72,3.72,0,0,0,1.31,1.41,3.23,3.23,0,0,0,1.91.44,4.94,4.94,0,0,0,2.78-1,17.37,17.37,0,0,0,2.86-2.55,37.83,37.83,0,0,0,2.75-3.43c.88-1.26,1.71-2.51,2.46-3.75s1.42-2.39,2-3.48C738.11,436.22,738.25,436,738.37,435.7Z" transform="translate(-231.79 -180.34)"/><path class="cls-1" d="M762,434a.9.9,0,0,0-.33-1.22.93.93,0,0,0-.86-.11,1,1,0,0,0-.58.61,24.73,24.73,0,0,1-1.53,3.13,38,38,0,0,1-4.89,6.67,24.18,24.18,0,0,1-2.88,2.72,12.32,12.32,0,0,1-2.89,1.74,4.62,4.62,0,0,1-2.63.36,1.72,1.72,0,0,1-1.25-.94,5,5,0,0,1-.53-1.94,11.8,11.8,0,0,1,0-2.57,19.64,19.64,0,0,1,.56-2.85,18.19,18.19,0,0,0,5.21-2.3,19.6,19.6,0,0,0,4-3.38,15.71,15.71,0,0,0,2.52-3.79,8.62,8.62,0,0,0,.89-3.55,3.59,3.59,0,0,0-1-2.6,4.09,4.09,0,0,0-3-1,11.24,11.24,0,0,0-3.94.72,13.27,13.27,0,0,0-3.77,2.22,18.83,18.83,0,0,0-3.48,3.85,24.72,24.72,0,0,0-2.06,3.64c-.32.66-.61,1.35-.9,2.09-.05.1-.08.2-.13.31a27.81,27.81,0,0,0-1.09,3.7,13.73,13.73,0,0,0-.33,4.24,8.7,8.7,0,0,0,1.13,3.73,6.12,6.12,0,0,0,3.19,2.58,7.28,7.28,0,0,0,4,.5,12.06,12.06,0,0,0,4-1.44,19.34,19.34,0,0,0,3.8-2.85,36.4,36.4,0,0,0,3.47-3.82,40.59,40.59,0,0,0,2.94-4.27Q761.06,436,762,434Zm-16.59,2.27a39.47,39.47,0,0,1,4.54-8.08q2.28-2.94,3.78-2.88c.67,0,1,.54,1,1.5a7.87,7.87,0,0,1-1.08,3.4,16.21,16.21,0,0,1-3.19,4,15.13,15.13,0,0,1-5.47,3.18A10.81,10.81,0,0,1,745.41,436.31Z" transform="translate(-231.79 -180.34)"/><path class="cls-1" d="M783,433.76a.87.87,0,0,0-.47-.6.84.84,0,0,0-1.33.38,32.79,32.79,0,0,1-2.39,3.88,50.12,50.12,0,0,1-3.27,4.15,11.54,11.54,0,0,0,.31-3.32,15,15,0,0,0-.75-3.82,23.58,23.58,0,0,0-2-4.32,30.38,30.38,0,0,0-3.47-4.76l.17-.33a12.72,12.72,0,0,0,1.17-2.25,4.91,4.91,0,0,0,.38-2.07,2.22,2.22,0,0,0-.69-1.55,2.83,2.83,0,0,0-2-.61,4,4,0,0,0-2.16.52,4.18,4.18,0,0,0-1.3,1.28,5.28,5.28,0,0,0-.67,1.49,5.22,5.22,0,0,0-.2,1.25,7.3,7.3,0,0,0,.34,2.21,7.42,7.42,0,0,0,.94,1.94q-.39.78-.72,1.47c-.22.46-.46.91-.72,1.36s-.52.91-.78,1.41-.54,1.06-.83,1.69a.71.71,0,0,0-.08.69.85.85,0,0,0,.47.44,1.33,1.33,0,0,0,.72.09,1,1,0,0,0,.66-.45c.38-.73.79-1.52,1.25-2.35s.88-1.6,1.25-2.3a29,29,0,0,1,2.33,6.48,18.86,18.86,0,0,1,.48,5,10.69,10.69,0,0,1-.81,3.68,9.2,9.2,0,0,1-1.52,2.49,5.88,5.88,0,0,1-1.7,1.39,3.26,3.26,0,0,1-1.28.41,2.61,2.61,0,0,1-1.91-.8,3.37,3.37,0,0,1-.86-1.8,5.75,5.75,0,0,1,.11-2.21,4.67,4.67,0,0,1,1-2,1.56,1.56,0,0,0,.61.8,1.61,1.61,0,0,0,.95.31,1.72,1.72,0,0,0,1.19-.5,1.62,1.62,0,0,0,.53-1.22,1.41,1.41,0,0,0-.53-1.11,2.12,2.12,0,0,0-1.14-.5,2.68,2.68,0,0,0-1.5.28,6.78,6.78,0,0,0-2,1.55,4.57,4.57,0,0,0-1.06,2.39,7.32,7.32,0,0,0,.11,3.09,5.49,5.49,0,0,0,1.58,2.69,4.75,4.75,0,0,0,3.41,1.14,6.89,6.89,0,0,0,1.89-.34,14.47,14.47,0,0,0,2.34-.94l0-.05h.05a15.09,15.09,0,0,0,3.69-2.22,26.65,26.65,0,0,0,3.14-3c1.41-1.59,2.69-3.17,3.86-4.76a33.06,33.06,0,0,0,3.08-5.1A1,1,0,0,0,783,433.76Z" transform="translate(-231.79 -180.34)"/><polygon class="cls-1" points="612.64 188.63 610.79 192.49 607.17 194.74 611 196.6 613.23 200.25 615.08 196.39 618.7 194.15 614.87 192.28 612.64 188.63"/><polygon class="cls-1" points="626.73 159.16 624.88 163.02 621.26 165.26 625.09 167.13 627.32 170.78 629.17 166.92 632.79 164.67 628.96 162.81 626.73 159.16"/><polygon class="cls-1" points="661.37 193.32 659.52 197.18 655.9 199.42 659.73 201.28 661.96 204.94 663.81 201.08 667.43 198.83 663.6 196.97 661.37 193.32"/><polygon class="cls-1" points="663.95 164.04 665.19 161.45 667.63 159.94 665.05 158.69 663.55 156.23 662.31 158.83 659.87 160.34 662.45 161.59 663.95 164.04"/><polygon class="cls-1" points="635.82 185.9 634.98 187.65 633.34 188.67 635.07 189.52 636.08 191.17 636.92 189.42 638.57 188.4 636.83 187.56 635.82 185.9"/><polygon class="cls-1" points="629.38 224.84 628.54 226.59 626.9 227.61 628.63 228.46 629.64 230.11 630.48 228.36 632.13 227.34 630.39 226.5 629.38 224.84"/><path class="cls-1" d="M955,430.72c-1-20.34-18.58-38-38.84-38.76-24.56-1.75-46.4,20.92-43.26,45.7-27.39-.14-8.58-27.21-29-24.31-3.25-17,.54-9,10.47-18.66,1.65-1.6,2.72-2.83,3-4.5a24.35,24.35,0,0,0,.07-4.22l48.26-20.73-49.27,18a17,17,0,0,0-2,0,14.58,14.58,0,0,0-2.36.34,8.13,8.13,0,0,0-3.71,2.38c-1.79,1.85-2.37,3.74-3.38,6.46-.73,2-1.83,4.78-3.37,8.16-8.76,4.05-15.64,3.92-19.58,3.4-4.29-.57-10.79-2.36-10.79-4.42s5.75-3.35,5.73-3.4-6.27,1.38-6.41,3.74,5.75,4.44,6.75,4.76c3.47,1.11,11.53,2.8,24.17-2.34-.49,4,.43,7.79,1.25,11.48a37.57,37.57,0,0,0-10.14,7.48c-1.21,1.26-2.26,1-3.5.3-5.53-2.57-11.5-5.59-16.77-8.59-6.21-3-16.83-5.4-21.53,1.32-4.53,6.76-2.88,15.7,4.32,19.84-.38.45-4.43,5.38-2.78,11.61.11.42,1.75,6.24,7.09,8.19a11.43,11.43,0,0,0,6.08.34c5.91-.95,9.81-4.91,12-7.22a45,45,0,0,0,8.33-13,29.92,29.92,0,0,1,3-5.76,29.05,29.05,0,0,1,3.75-4.54c5.64.24,12.39-2.06,11.73-9,14.13-1.83,6.46,15.66,16.53,21.48l0,0a27,27,0,0,0,12.25,2.79,41.35,41.35,0,0,0,7.74,19.08l-.1.09c.39.55.71,1.15,1.06,1.73l.27-.23c3,3.92,7,6.66,10.9,9.61a1.09,1.09,0,0,1,0-.17C920.67,486.3,957.73,463.3,955,430.72Zm-111.1-31.29c.15-.48.29-.92.44-1.36l.26-.79c.33-1,.67-2,1-3a24.48,24.48,0,0,1,3.49-6.9l.32-.43a2.2,2.2,0,0,0,.56,1.77c1,1,3.64.41,6.27-1.79l.05.26a10.18,10.18,0,0,1-.92,3.91c-1.49,3.24-4.53,5-7.72,6.88-1.2.7-2.56,1.41-2.56,1.41l-.86.43-.57.29Zm-14.18,25.16c-.41.62-.79,1.21-1.21,1.79a39.66,39.66,0,0,0-3.76,6.63c-3.1,6.21-4.8,9.61-8,13a25.1,25.1,0,0,1-8.86,6.17,10.86,10.86,0,0,1-4.63,1.21h-.11a9.73,9.73,0,0,1-3.74-.83,10.62,10.62,0,0,1-6.06-8.67,10.18,10.18,0,0,1,.63-4.22,14.8,14.8,0,0,1,2-3.72c.32-.43.5-.67.84-.67a1.36,1.36,0,0,1,.73.24,6.86,6.86,0,0,0,4,.68,7.83,7.83,0,0,0,1.21-.18,24.82,24.82,0,0,0,3.54-1,6.23,6.23,0,0,0,2.74-2.35,2.48,2.48,0,0,0,.35-2.12,2.33,2.33,0,0,0-1.38-1.54,7.19,7.19,0,0,0-5.87-.06,25.47,25.47,0,0,0-5.56,3.69l-.28.22-.14.11-.15-.09c-3.22-1.78-5-4.1-5.61-7.27a15.09,15.09,0,0,1,.51-8.35,9.66,9.66,0,0,1,2.59-3.83,7,7,0,0,1,4.34-1.68,24,24,0,0,1,8.15.9c1.39.37,3.2.86,5,1.43a11.43,11.43,0,0,1,2.13,1l2.38,1.28,0,0c2.91,1.57,5.92,3.19,8.83,4.87a33.5,33.5,0,0,0,3.32,1.59c.68.29,1.37.59,2,.92l.19.09.27.14Zm-32,9.18.27-.28a13.12,13.12,0,0,1,4.3-3.16,6,6,0,0,1,4.9.24.77.77,0,0,1,.4.35c.41.85-1.14,2.25-2,2.79a6.8,6.8,0,0,1-3.57,1.05h-.36a8.92,8.92,0,0,1-3.64-.84Zm43.9-14.06a5.84,5.84,0,0,1-1.28,1.25,6.82,6.82,0,0,1-1.67.89,13.26,13.26,0,0,1-4.65.81h-.82l.36-.43c2-2.34,7-5.94,9-6.61l.3-.11,0,.32A5,5,0,0,1,841.66,419.71Zm103.21-10.93a39.18,39.18,0,0,1,4.29,6.78l.09.18c-.45,3.35-4.51,9.37-11.91,15.09a59,59,0,0,1-7.4,4.86,8.41,8.41,0,0,1-1.53-.19A96.93,96.93,0,0,0,943,406.63C943.69,407.35,944.3,408.06,944.87,408.78ZM942,405.52a95.54,95.54,0,0,1-14.94,29.59,25.59,25.59,0,0,1-7.21-4.35,95.82,95.82,0,0,0,15-31A38.51,38.51,0,0,1,942,405.52Zm-43.35,29a88.85,88.85,0,0,1-.28-12.55,53.86,53.86,0,0,0,18.92,18.94,61.18,61.18,0,0,1-10,2A58.73,58.73,0,0,1,898.65,434.54Zm6.74,8.59-.41.05c-1.67.12-3.35.17-5,.16q-.66-3.3-1.05-6.51A59,59,0,0,0,905.39,443.13Zm-6.87-23.53A81.33,81.33,0,0,1,900.73,406c4,12.2,17.46,28.47,27.2,30.72a61.2,61.2,0,0,1-8.87,3.64C911,436.14,903.31,428.4,898.52,419.6Zm27.43-24a39.9,39.9,0,0,1,7.64,3.4l.06,0a94.49,94.49,0,0,1-14.81,30.92,57,57,0,0,1-5.93-6A86.1,86.1,0,0,0,926,395.56Zm-9.47-1.8a39,39,0,0,1,8.21,1.42A84.67,84.67,0,0,1,912,422.88a66.3,66.3,0,0,1-5.2-7.19A76.81,76.81,0,0,0,916.48,393.76Zm-11.72,1a39.29,39.29,0,0,1,6.58-1,32.69,32.69,0,0,1,3.76-.06h0a75.16,75.16,0,0,1-9.08,20.74,41,41,0,0,1-4.66-10.85A55.13,55.13,0,0,1,904.76,394.74Zm-12.37,5.36,0,0,.32-.21a38.66,38.66,0,0,1,10.37-4.69,58,58,0,0,0-3,8.31h0a.14.14,0,0,1,0,.06,86.51,86.51,0,0,0-1.44,39.76,66.33,66.33,0,0,1-8.6-.82A91.57,91.57,0,0,1,892.39,400.1Zm-9.87,9.24a39.73,39.73,0,0,1,8.14-8,93.31,93.31,0,0,0-2,40.95q-3.25-.6-6.53-1.53A93.82,93.82,0,0,1,882.52,409.34Zm-8.07,24.08a39.81,39.81,0,0,1,6.31-21.56,95.24,95.24,0,0,0,0,28.46c-2-.61-4-1.31-6-2.1A41.33,41.33,0,0,1,874.45,433.42Zm.5,6.28a70,70,0,0,0,25.4,5c1.57,0,3.15-.06,4.73-.18,24.76-1.86,42-18.24,45-26.88a39.46,39.46,0,0,1,3.17,13.19,59.26,59.26,0,0,1-11.61,10.26c-15.14,10.51-43.13,15.46-65.47,4.11A39.26,39.26,0,0,1,875,439.7Zm38.95,33.47a39.09,39.09,0,0,1-20.77-6c-.24-.15-.47-.29-.72-.46a40,40,0,0,1-5.2-4.09,68.61,68.61,0,0,0,27.17,6h.16a83.4,83.4,0,0,0,23-3.38A39.21,39.21,0,0,1,913.9,473.17Zm26.55-10.34-.27.23a82.42,82.42,0,0,1-25.64,4.29h-.16c-7.79,0-20.17-2-30.11-7.7l-.11-.12-.48-.56c-.23-.27-.45-.55-.68-.84s-.28-.36-.42-.56a37,37,0,0,1-2.22-3.23A67.72,67.72,0,0,0,910,461a78.17,78.17,0,0,0,39.87-11.15A39.82,39.82,0,0,1,940.45,462.83ZM951,447.07h-.27v.67c-12.33,8.4-42.32,19.65-71.54,4.5l0-.1a39,39,0,0,1-2.32-5.2,64.4,64.4,0,0,0,27.79,6c14.61,0,28.58-4.39,37.83-10.82a63.39,63.39,0,0,0,11-9.42c0,.23,0,.45,0,.69A39.84,39.84,0,0,1,951,447.07Z" transform="translate(-231.79 -180.34)"/><path class="cls-2" d="M913.49,474.87c55.79-1,69.42-3.19,69.51-5.27s-14.29-5-19.91-6.12a118.61,118.61,0,0,0-19.8-2.23,37.62,37.62,0,0,1-29.8,13.62Z" transform="translate(-231.79 -180.34)"/><path class="cls-1" d="M541.72,184.34c.52,1.81-1.46,2.59-2.44,1.08a2.21,2.21,0,0,1-1,.16,1.18,1.18,0,0,1-.85-.53,1.24,1.24,0,0,1,.3-1.45,1.08,1.08,0,0,1-.55-.41,1.27,1.27,0,0,1-.12-.93c.13-.79,1.07-1,1.77-.94.72-1.48,2.5-1.26,2.52.49C543.11,181.74,543.64,184.49,541.72,184.34Z" transform="translate(-231.79 -180.34)"/></svg>